<svg width="79" height="79" viewBox="0 0 79 79" fill="none" xmlns="http://www.w3.org/2000/svg">
<path d="M77.6963 29.0059C77.2306 32.2381 76.154 38.3166 74.6543 44.2188C73.6309 51.746 70.2283 59.0118 64.4424 64.7979C51.3044 77.9359 30.5387 78.7958 16.4014 67.3789L0 78.3457L10.9639 61.9443C10.9018 61.8676 10.8397 61.791 10.7783 61.7139L2.04883 64.4287L8.00488 56.9551L8.01074 56.9629L8.43848 56.4434C9.97417 59.1832 11.907 61.7605 14.2373 64.0908C27.9057 77.7592 50.067 77.7592 63.7354 64.0908C72.8859 54.9401 75.9103 41.9831 72.8086 30.3164L73.3496 30.1709L77.6963 29.0059ZM67.0781 16.8262C67.1717 16.9426 67.2645 17.0594 67.3564 17.1768L75.5723 14.623L70.1973 21.377L70.1875 21.3662C70.1901 21.3708 70.1927 21.3753 70.1953 21.3799L69.4824 22.1484C67.9552 19.4431 66.0394 16.8978 63.7354 14.5938C50.067 0.925399 27.9057 0.9254 14.2373 14.5938C5.06895 23.7623 2.05096 36.7521 5.18262 48.4365L4.21582 48.6953L0.422852 49.7119C0.857983 46.6918 1.82557 41.1864 3.17383 35.6621C3.98614 27.7111 7.43826 19.9788 13.5303 13.8867C26.6466 0.77035 47.3652 -0.107729 61.501 11.25L78.3281 0L67.0781 16.8262Z" fill="#BFE900"/>
<path d="M39.0781 19C28.0324 19 19.0781 27.9543 19.0781 39H59.0781C59.0781 27.9543 50.1238 19 39.0781 19Z" fill="#FF2F2F"/>
<path d="M39.0781 59C50.1238 59 59.0781 50.0457 59.0781 39H19.0781C19.0781 50.0457 28.0324 59 39.0781 59Z" fill="white"/>
<path d="M39.0781 18C50.6761 18 60.0781 27.402 60.0781 39C60.0781 50.598 50.6761 60 39.0781 60V57C48.5141 57 56.2534 49.7393 57.0156 40.5H21.1406C21.9029 49.7393 29.6422 57 39.0781 57V60C27.4801 60 18.0781 50.598 18.0781 39C18.0781 27.402 27.4801 18 39.0781 18ZM39.0781 21C29.6422 21 21.9029 28.2607 21.1406 37.5H57.0156C56.2534 28.2607 48.5141 21 39.0781 21Z" fill="black"/>
<circle cx="39.0781" cy="39" r="5.5" fill="white" stroke="black" stroke-width="3"/>
</svg>
