<svg width="68" height="68" viewBox="0 0 68 68" fill="none" xmlns="http://www.w3.org/2000/svg">
<rect x="0.00012207" y="0.00012207" width="68" height="68" rx="10" fill="white"/>
<rect x="10.5001" y="11.5001" width="5" height="5" fill="#EF4444"/>
<rect x="17.5001" y="11.5001" width="5" height="5" fill="#22C55E"/>
<rect x="24.5001" y="11.5001" width="5" height="5" fill="#EF4444"/>
<rect x="31.5001" y="11.5001" width="5" height="5" fill="#EF4444"/>
<rect x="38.5001" y="11.5001" width="5" height="5" fill="#EF4444"/>
<rect x="45.5001" y="11.5001" width="5" height="5" fill="#EF4444"/>
<rect x="52.5001" y="11.5001" width="5" height="5" fill="#EF4444"/>
<rect x="10.5001" y="18.5001" width="5" height="5" fill="#EF4444"/>
<rect x="17.5001" y="18.5001" width="5" height="5" fill="#22C55E"/>
<rect x="24.5001" y="18.5001" width="5" height="5" fill="#EBC008"/>
<rect x="31.5001" y="18.5001" width="5" height="5" fill="#EF4444"/>
<rect x="38.5001" y="18.5001" width="5" height="5" fill="#EF4444"/>
<rect x="45.5001" y="18.5001" width="5" height="5" fill="#EF4444"/>
<rect x="52.5001" y="18.5001" width="5" height="5" fill="#EF4444"/>
<rect x="10.5001" y="25.5001" width="5" height="5" fill="#22C55E"/>
<rect x="17.5001" y="25.5001" width="5" height="5" fill="#22C55E"/>
<rect x="24.5001" y="25.5001" width="5" height="5" fill="#EBC008"/>
<rect x="31.5001" y="25.5001" width="5" height="5" fill="#EF4444"/>
<rect x="38.5001" y="25.5001" width="5" height="5" fill="#EF4444"/>
<rect x="45.5001" y="25.5001" width="5" height="5" fill="#EF4444"/>
<rect x="52.5001" y="25.5001" width="5" height="5" fill="#EF4444"/>
<rect x="10.5001" y="32.5001" width="5" height="5" fill="#22C55E"/>
<rect x="17.5001" y="32.5001" width="5" height="5" fill="#22C55E"/>
<rect x="24.5001" y="32.5001" width="5" height="5" fill="#EBC008"/>
<rect x="31.5001" y="32.5001" width="5" height="5" fill="#22C55E"/>
<rect x="38.5001" y="32.5001" width="5" height="5" fill="#EF4444"/>
<rect x="45.5001" y="32.5001" width="5" height="5" fill="#EF4444"/>
<rect x="52.5001" y="32.5001" width="5" height="5" fill="#EF4444"/>
<rect x="10.5001" y="39.5001" width="5" height="5" fill="#22C55E"/>
<rect x="17.5001" y="39.5001" width="5" height="5" fill="#22C55E"/>
<rect x="24.5001" y="39.5001" width="5" height="5" fill="#EBC008"/>
<rect x="31.5001" y="39.5001" width="5" height="5" fill="#22C55E"/>
<rect x="38.5001" y="39.5001" width="5" height="5" fill="#22C55E"/>
<rect x="45.5001" y="39.5001" width="5" height="5" fill="#EF4444"/>
<rect x="52.5001" y="39.5001" width="5" height="5" fill="#EF4444"/>
<rect x="10.5001" y="46.5001" width="5" height="5" fill="#22C55E"/>
<rect x="17.5001" y="46.5001" width="5" height="5" fill="#22C55E"/>
<rect x="24.5001" y="46.5001" width="5" height="5" fill="#22C55E"/>
<rect x="31.5001" y="46.5001" width="5" height="5" fill="#22C55E"/>
<rect x="38.5001" y="46.5001" width="5" height="5" fill="#22C55E"/>
<rect x="45.5001" y="46.5001" width="5" height="5" fill="#EF4444"/>
<rect x="52.5001" y="46.5001" width="5" height="5" fill="#EF4444"/>
<rect x="10.5001" y="53.5001" width="5" height="5" fill="#22C55E"/>
<rect x="17.5001" y="53.5001" width="5" height="5" fill="#22C55E"/>
<rect x="24.5001" y="53.5001" width="5" height="5" fill="#22C55E"/>
<rect x="31.5001" y="53.5001" width="5" height="5" fill="#22C55E"/>
<rect x="38.5001" y="53.5001" width="5" height="5" fill="#22C55E"/>
<rect x="45.5001" y="53.5001" width="5" height="5" fill="#22C55E"/>
<rect x="52.5001" y="53.5001" width="5" height="5" fill="#22C55E"/>
</svg>
