<svg width="116" height="113" viewBox="0 0 116 113" fill="none" xmlns="http://www.w3.org/2000/svg">
<path fill-rule="evenodd" clip-rule="evenodd" d="M59.1759 35.3814C57.6352 35.3814 56.3747 36.6425 56.3747 38.1839C56.3747 39.7252 57.6352 40.9863 59.1759 40.9863C60.7165 40.9863 61.9771 39.7252 61.9771 38.1839C61.9771 36.6425 60.7165 35.3814 59.1759 35.3814ZM54.974 41.3366C53.4334 41.3366 52.1728 42.5978 52.1728 44.1391C52.1728 45.6805 53.4334 46.9416 54.974 46.9416C56.5147 46.9416 57.7753 45.6805 57.7753 44.1391C57.7753 42.5978 56.5147 41.3366 54.974 41.3366ZM49.0215 37.1329C47.4808 37.1329 46.2202 38.394 46.2202 39.9354C46.2202 41.4768 47.4808 42.7379 49.0215 42.7379C50.5621 42.7379 51.8227 41.4768 51.8227 39.9354C51.8227 38.394 50.5621 37.1329 49.0215 37.1329ZM43.2439 33.2795C41.8083 33.2795 40.6178 34.4706 40.6178 35.9068C40.6178 37.3431 41.8083 38.5342 43.2439 38.5342C44.6796 38.5342 45.8701 37.3431 45.8701 35.9068C45.8701 34.4706 44.6796 33.2795 43.2439 33.2795ZM50.9473 46.9416C49.3016 46.9416 47.971 48.2728 47.971 49.9193C47.971 51.5657 49.3016 52.8969 50.9473 52.8969C52.593 52.8969 53.9236 51.5657 53.9236 49.9193C53.9236 48.2728 52.593 46.9416 50.9473 46.9416ZM65.1285 39.5851C63.5878 39.5851 62.3272 40.8462 62.3272 42.3876C62.3272 43.9289 63.5878 45.1901 65.1285 45.1901C66.6691 45.1901 67.9297 43.9289 67.9297 42.3876C67.9297 40.8462 66.6691 39.5851 65.1285 39.5851ZM60.9266 45.5404C59.386 45.5404 58.1254 46.8015 58.1254 48.3429C58.1254 49.8842 59.386 51.1453 60.9266 51.1453C62.4673 51.1453 63.7278 49.8842 63.7278 48.3429C63.7278 46.8015 62.4673 45.5404 60.9266 45.5404ZM56.8999 51.1453C55.2542 51.1453 53.9236 52.4765 53.9236 54.123C53.9236 55.7694 55.2542 57.1006 56.8999 57.1006C58.5456 57.1006 59.8762 55.7694 59.8762 54.123C59.8762 52.4765 58.5456 51.1453 56.8999 51.1453ZM70.906 43.4385C69.2602 43.4385 67.9297 44.7697 67.9297 46.4161C67.9297 48.0626 69.2602 49.3938 70.906 49.3938C72.5517 49.3938 73.8823 48.0626 73.8823 46.4161C73.8823 44.7697 72.5517 43.4385 70.906 43.4385ZM76.8586 47.6422C75.2128 47.6422 73.8823 48.9734 73.8823 50.6199C73.8823 52.2663 75.2128 53.5975 76.8586 53.5975C78.5043 53.5975 79.8348 52.2663 79.8348 50.6199C79.8348 48.9734 78.5043 47.6422 76.8586 47.6422ZM66.7041 49.3938C65.0584 49.3938 63.7278 50.725 63.7278 52.3714C63.7278 54.0179 65.0584 55.3491 66.7041 55.3491C68.3499 55.3491 69.6804 54.0179 69.6804 52.3714C69.6804 50.725 68.3499 49.3938 66.7041 49.3938ZM72.6567 53.5975C71.011 53.5975 69.6804 54.9287 69.6804 56.5752C69.6804 58.2216 71.011 59.5528 72.6567 59.5528C74.3024 59.5528 75.633 58.2216 75.633 56.5752C75.633 54.9287 74.3024 53.5975 72.6567 53.5975ZM62.8525 55.3491C61.2068 55.3491 59.8762 56.6803 59.8762 58.3267C59.8762 59.9732 61.2068 61.3043 62.8525 61.3043C64.4982 61.3043 65.8288 59.9732 65.8288 58.3267C65.8288 56.6803 64.4982 55.3491 62.8525 55.3491ZM68.4549 59.5528C66.8092 59.5528 65.4786 60.884 65.4786 62.5304C65.4786 64.1769 66.8092 65.5081 68.4549 65.5081C70.1006 65.5081 71.4312 64.1769 71.4312 62.5304C71.4312 60.884 70.1006 59.5528 68.4549 59.5528ZM44.9947 42.7379C43.349 42.7379 42.0184 44.0691 42.0184 45.7155C42.0184 47.362 43.349 48.6932 44.9947 48.6932C46.6404 48.6932 47.971 47.362 47.971 45.7155C47.971 44.0691 46.6404 42.7379 44.9947 42.7379ZM39.2172 38.8845C37.6765 38.8845 36.416 40.1456 36.416 41.687C36.416 43.2283 37.6765 44.4894 39.2172 44.4894C40.7579 44.4894 42.0184 43.2283 42.0184 41.687C42.0184 40.1456 40.7579 38.8845 39.2172 38.8845ZM46.7455 52.8969C45.0998 52.8969 43.7692 54.2281 43.7692 55.8745C43.7692 57.521 45.0998 58.8522 46.7455 58.8522C48.3912 58.8522 49.7218 57.521 49.7218 55.8745C49.7218 54.2281 48.3912 52.8969 46.7455 52.8969ZM42.5436 58.8522C40.8979 58.8522 39.5674 60.1834 39.5674 61.8298C39.5674 63.4763 40.8979 64.8075 42.5436 64.8075C44.1894 64.8075 45.5199 63.4763 45.5199 61.8298C45.5199 60.1834 44.1894 58.8522 42.5436 58.8522ZM52.3479 57.1006C50.7022 57.1006 49.3716 58.4318 49.3716 60.0783C49.3716 61.7247 50.7022 63.0559 52.3479 63.0559C53.9936 63.0559 55.3242 61.7247 55.3242 60.0783C55.3242 58.4318 53.9936 57.1006 52.3479 57.1006ZM48.1461 63.0559C46.5004 63.0559 45.1698 64.3871 45.1698 66.0335C45.1698 67.68 46.5004 69.0112 48.1461 69.0112C49.7918 69.0112 51.1224 67.68 51.1224 66.0335C51.1224 64.3871 49.7918 63.0559 48.1461 63.0559ZM58.3005 61.3043C56.6548 61.3043 55.3242 62.6355 55.3242 64.282C55.3242 65.9284 56.6548 67.2596 58.3005 67.2596C59.9462 67.2596 61.2768 65.9284 61.2768 64.282C61.2768 62.6355 59.9462 61.3043 58.3005 61.3043ZM54.0987 67.2596C52.453 67.2596 51.1224 68.5908 51.1224 70.2373C51.1224 71.8837 52.453 73.2149 54.0987 73.2149C55.7444 73.2149 57.075 71.8837 57.075 70.2373C57.075 68.5908 55.7444 67.2596 54.0987 67.2596ZM38.5169 64.8075C36.9762 64.8075 35.7157 66.0686 35.7157 67.6099C35.7157 69.1513 36.9762 70.4124 38.5169 70.4124C40.0576 70.4124 41.3181 69.1513 41.3181 67.6099C41.3181 66.0686 40.0576 64.8075 38.5169 64.8075ZM40.7929 48.6932C39.1472 48.6932 37.8166 50.0243 37.8166 51.6708C37.8166 53.3173 39.1472 54.6484 40.7929 54.6484C42.4386 54.6484 43.7692 53.3173 43.7692 51.6708C43.7692 50.0243 42.4386 48.6932 40.7929 48.6932ZM35.0154 44.8398C33.4747 44.8398 32.2142 46.1009 32.2142 47.6422C32.2142 49.1836 33.4747 50.4447 35.0154 50.4447C36.556 50.4447 37.8166 49.1836 37.8166 47.6422C37.8166 46.1009 36.556 44.8398 35.0154 44.8398ZM33.0895 35.0311C31.6539 35.0311 30.4634 36.2221 30.4634 37.6584C30.4634 39.0947 31.6539 40.2857 33.0895 40.2857C34.5252 40.2857 35.7157 39.0947 35.7157 37.6584C35.7157 36.2221 34.5252 35.0311 33.0895 35.0311ZM37.2914 29.0758C35.8557 29.0758 34.6652 30.2668 34.6652 31.7031C34.6652 33.1394 35.8557 34.3304 37.2914 34.3304C38.727 34.3304 39.9175 33.1394 39.9175 31.7031C39.9175 30.2668 38.727 29.0758 37.2914 29.0758ZM41.3181 23.4708C39.9525 23.4708 38.8671 24.5568 38.8671 25.923C38.8671 27.2892 39.9525 28.3752 41.3181 28.3752C42.6837 28.3752 43.7692 27.2892 43.7692 25.923C43.7692 24.5568 42.6837 23.4708 41.3181 23.4708ZM35.7157 19.6174C34.5602 19.6174 33.6148 20.5632 33.6148 21.7193C33.6148 22.8753 34.5602 23.8211 35.7157 23.8211C36.8712 23.8211 37.8166 22.8753 37.8166 21.7193C37.8166 20.5632 36.8712 19.6174 35.7157 19.6174ZM31.3388 25.2224C30.0782 25.2224 29.0628 26.2383 29.0628 27.4994C29.0628 28.7605 30.0782 29.7764 31.3388 29.7764C32.5993 29.7764 33.6148 28.7605 33.6148 27.4994C33.6148 26.2383 32.5993 25.2224 31.3388 25.2224ZM27.4871 31.1776C26.2266 31.1776 25.2111 32.1935 25.2111 33.4547C25.2111 34.7158 26.2266 35.7317 27.4871 35.7317C28.7477 35.7317 29.7631 34.7158 29.7631 33.4547C29.7631 32.1935 28.7477 31.1776 27.4871 31.1776ZM23.1102 37.1329C21.9547 37.1329 21.0093 38.0788 21.0093 39.2348C21.0093 40.3908 21.9547 41.3366 23.1102 41.3366C24.2657 41.3366 25.2111 40.3908 25.2111 39.2348C25.2111 38.0788 24.2657 37.1329 23.1102 37.1329ZM18.9084 43.0882C17.7529 43.0882 16.8075 44.034 16.8075 45.1901C16.8075 46.3461 17.7529 47.2919 18.9084 47.2919C20.0639 47.2919 21.0093 46.3461 21.0093 45.1901C21.0093 44.034 20.0639 43.0882 18.9084 43.0882ZM14.8816 49.0435C13.8312 49.0435 12.9558 49.9193 12.9558 50.9702C12.9558 52.0211 13.8312 52.8969 14.8816 52.8969C15.9321 52.8969 16.8075 52.0211 16.8075 50.9702C16.8075 49.9193 15.9321 49.0435 14.8816 49.0435ZM45.695 17.5155C44.4345 17.5155 43.419 18.5314 43.419 19.7925C43.419 21.0537 44.4345 22.0696 45.695 22.0696C46.9556 22.0696 47.971 21.0537 47.971 19.7925C47.971 18.5314 46.9556 17.5155 45.695 17.5155ZM49.8968 11.9106C48.8464 11.9106 47.971 12.7863 47.971 13.8373C47.971 14.8882 48.8464 15.764 49.8968 15.764C50.9473 15.764 51.8227 14.8882 51.8227 13.8373C51.8227 12.7863 50.9473 11.9106 49.8968 11.9106ZM30.6385 50.795C29.2029 50.795 28.0123 51.9861 28.0123 53.4224C28.0123 54.8586 29.2029 56.0497 30.6385 56.0497C32.0741 56.0497 33.2646 54.8586 33.2646 53.4224C33.2646 51.9861 32.0741 50.795 30.6385 50.795ZM24.861 46.9416C23.4954 46.9416 22.4099 48.0276 22.4099 49.3938C22.4099 50.76 23.4954 51.846 24.861 51.846C26.2266 51.846 27.312 50.76 27.312 49.3938C27.312 48.0276 26.2266 46.9416 24.861 46.9416ZM29.0628 40.9863C27.6972 40.9863 26.6117 42.0723 26.6117 43.4385C26.6117 44.8047 27.6972 45.8907 29.0628 45.8907C30.4284 45.8907 31.5139 44.8047 31.5139 43.4385C31.5139 42.0723 30.4284 40.9863 29.0628 40.9863ZM36.5911 54.6484C34.9454 54.6484 33.6148 55.9796 33.6148 57.6261C33.6148 59.2725 34.9454 60.6037 36.5911 60.6037C38.2368 60.6037 39.5674 59.2725 39.5674 57.6261C39.5674 55.9796 38.2368 54.6484 36.5911 54.6484ZM32.5643 60.6037C31.0236 60.6037 29.7631 61.8648 29.7631 63.4062C29.7631 64.9476 31.0236 66.2087 32.5643 66.2087C34.105 66.2087 35.3655 64.9476 35.3655 63.4062C35.3655 61.8648 34.105 60.6037 32.5643 60.6037ZM34.14 71.113C32.7044 71.113 31.5139 72.3041 31.5139 73.7404C31.5139 75.1766 32.7044 76.3677 34.14 76.3677C35.5756 76.3677 36.7661 75.1766 36.7661 73.7404C36.7661 72.3041 35.5756 71.113 34.14 71.113ZM28.1874 66.9093C26.7518 66.9093 25.5613 68.1004 25.5613 69.5366C25.5613 70.9729 26.7518 72.164 28.1874 72.164C29.623 72.164 30.8136 70.9729 30.8136 69.5366C30.8136 68.1004 29.623 66.9093 28.1874 66.9093ZM22.4099 62.7056C21.0443 62.7056 19.9588 63.7916 19.9588 65.1578C19.9588 66.524 21.0443 67.6099 22.4099 67.6099C23.7755 67.6099 24.861 66.524 24.861 65.1578C24.861 63.7916 23.7755 62.7056 22.4099 62.7056ZM20.6591 52.8969C19.2936 52.8969 18.2081 53.9829 18.2081 55.3491C18.2081 56.7153 19.2936 57.8012 20.6591 57.8012C22.0247 57.8012 23.1102 56.7153 23.1102 55.3491C23.1102 53.9829 22.0247 52.8969 20.6591 52.8969ZM26.4367 56.7503C25.001 56.7503 23.8105 57.9414 23.8105 59.3776C23.8105 60.8139 25.001 62.005 26.4367 62.005C27.8723 62.005 29.0628 60.8139 29.0628 59.3776C29.0628 57.9414 27.8723 56.7503 26.4367 56.7503ZM44.4695 69.0112C42.9288 69.0112 41.6683 70.2723 41.6683 71.8137C41.6683 73.355 42.9288 74.6161 44.4695 74.6161C46.0102 74.6161 47.2707 73.355 47.2707 71.8137C47.2707 70.2723 46.0102 69.0112 44.4695 69.0112ZM40.0926 75.3168C38.657 75.3168 37.4664 76.5078 37.4664 77.9441C37.4664 79.3804 38.657 80.5714 40.0926 80.5714C41.5282 80.5714 42.7187 79.3804 42.7187 77.9441C42.7187 76.5078 41.5282 75.3168 40.0926 75.3168ZM50.0719 73.2149C48.5312 73.2149 47.2707 74.476 47.2707 76.0174C47.2707 77.5588 48.5312 78.8199 50.0719 78.8199C51.6126 78.8199 52.8731 77.5588 52.8731 76.0174C52.8731 74.476 51.6126 73.2149 50.0719 73.2149ZM64.2531 65.1578C62.6074 65.1578 61.2768 66.4889 61.2768 68.1354C61.2768 69.7819 62.6074 71.113 64.2531 71.113C65.8988 71.113 67.2294 69.7819 67.2294 68.1354C67.2294 66.4889 65.8988 65.1578 64.2531 65.1578ZM60.0513 71.113C58.4055 71.113 57.075 72.4442 57.075 74.0907C57.075 75.7371 58.4055 77.0683 60.0513 77.0683C61.697 77.0683 63.0275 75.7371 63.0275 74.0907C63.0275 72.4442 61.697 71.113 60.0513 71.113ZM66.1789 75.6671C64.6382 75.6671 63.3777 76.9282 63.3777 78.4696C63.3777 80.0109 64.6382 81.272 66.1789 81.272C67.7196 81.272 68.9801 80.0109 68.9801 78.4696C68.9801 76.9282 67.7196 75.6671 66.1789 75.6671ZM70.3807 69.7118C68.8401 69.7118 67.5795 70.9729 67.5795 72.5143C67.5795 74.0557 68.8401 75.3168 70.3807 75.3168C71.9214 75.3168 73.182 74.0557 73.182 72.5143C73.182 70.9729 71.9214 69.7118 70.3807 69.7118ZM74.5826 63.7565C73.0419 63.7565 71.7814 65.0176 71.7814 66.559C71.7814 68.1004 73.0419 69.3615 74.5826 69.3615C76.1232 69.3615 77.3838 68.1004 77.3838 66.559C77.3838 65.0176 76.1232 63.7565 74.5826 63.7565ZM78.4342 58.1516C76.8936 58.1516 75.633 59.4127 75.633 60.954C75.633 62.4954 76.8936 63.7565 78.4342 63.7565C79.9749 63.7565 81.2355 62.4954 81.2355 60.954C81.2355 59.4127 79.9749 58.1516 78.4342 58.1516ZM82.8111 52.1963C81.3755 52.1963 80.185 53.3873 80.185 54.8236C80.185 56.2599 81.3755 57.4509 82.8111 57.4509C84.2468 57.4509 85.4373 56.2599 85.4373 54.8236C85.4373 53.3873 84.2468 52.1963 82.8111 52.1963ZM87.013 46.241C85.5773 46.241 84.3868 47.4321 84.3868 48.8683C84.3868 50.3046 85.5773 51.4957 87.013 51.4957C88.4486 51.4957 89.6391 50.3046 89.6391 48.8683C89.6391 47.4321 88.4486 46.241 87.013 46.241ZM71.9564 79.8708C70.5208 79.8708 69.3303 81.0619 69.3303 82.4981C69.3303 83.9344 70.5208 85.1255 71.9564 85.1255C73.392 85.1255 74.5826 83.9344 74.5826 82.4981C74.5826 81.0619 73.392 79.8708 71.9564 79.8708ZM76.1582 73.9155C74.7226 73.9155 73.5321 75.1066 73.5321 76.5429C73.5321 77.9791 74.7226 79.1702 76.1582 79.1702C77.5939 79.1702 78.7844 77.9791 78.7844 76.5429C78.7844 75.1066 77.5939 73.9155 76.1582 73.9155ZM80.3601 68.3106C78.9245 68.3106 77.7339 69.5016 77.7339 70.9379C77.7339 72.3742 78.9245 73.5652 80.3601 73.5652C81.7957 73.5652 82.9862 72.3742 82.9862 70.9379C82.9862 69.5016 81.7957 68.3106 80.3601 68.3106ZM84.5619 62.3553C83.1263 62.3553 81.9358 63.5463 81.9358 64.9826C81.9358 66.4189 83.1263 67.6099 84.5619 67.6099C85.9975 67.6099 87.188 66.4189 87.188 64.9826C87.188 63.5463 85.9975 62.3553 84.5619 62.3553ZM90.5145 66.9093C89.2539 66.9093 88.2385 67.9252 88.2385 69.1863C88.2385 70.4475 89.2539 71.4634 90.5145 71.4634C91.775 71.4634 92.7905 70.4475 92.7905 69.1863C92.7905 67.9252 91.775 66.9093 90.5145 66.9093ZM94.7163 60.954C93.4558 60.954 92.4403 61.9699 92.4403 63.2311C92.4403 64.4922 93.4558 65.5081 94.7163 65.5081C95.9769 65.5081 96.9923 64.4922 96.9923 63.2311C96.9923 61.9699 95.9769 60.954 94.7163 60.954ZM98.7431 55.3491C97.5876 55.3491 96.6421 56.2949 96.6421 57.4509C96.6421 58.607 97.5876 59.5528 98.7431 59.5528C99.8986 59.5528 100.844 58.607 100.844 57.4509C100.844 56.2949 99.8986 55.3491 98.7431 55.3491ZM102.945 49.7441C101.964 49.7441 101.194 50.5148 101.194 51.4957C101.194 52.4765 101.964 53.2472 102.945 53.2472C103.925 53.2472 104.696 52.4765 104.696 51.4957C104.696 50.5148 103.925 49.7441 102.945 49.7441ZM106.972 44.1391C106.306 44.1391 105.746 44.6996 105.746 45.3652C105.746 46.0308 106.306 46.5913 106.972 46.5913C107.637 46.5913 108.197 46.0308 108.197 45.3652C108.197 44.6996 107.637 44.1391 106.972 44.1391ZM86.1376 72.5143C84.772 72.5143 83.6865 73.6003 83.6865 74.9665C83.6865 76.3327 84.772 77.4186 86.1376 77.4186C87.5032 77.4186 88.5886 76.3327 88.5886 74.9665C88.5886 73.6003 87.5032 72.5143 86.1376 72.5143ZM81.9358 78.4696C80.5702 78.4696 79.4847 79.5555 79.4847 80.9217C79.4847 82.2879 80.5702 83.3739 81.9358 83.3739C83.3014 83.3739 84.3868 82.2879 84.3868 80.9217C84.3868 79.5555 83.3014 78.4696 81.9358 78.4696ZM77.909 84.4248C76.6485 84.4248 75.633 85.4407 75.633 86.7019C75.633 87.963 76.6485 88.9789 77.909 88.9789C79.1696 88.9789 80.185 87.963 80.185 86.7019C80.185 85.4407 79.1696 84.4248 77.909 84.4248ZM88.7637 56.4C87.3281 56.4 86.1376 57.5911 86.1376 59.0273C86.1376 60.4636 87.3281 61.6547 88.7637 61.6547C90.1993 61.6547 91.3899 60.4636 91.3899 59.0273C91.3899 57.5911 90.1993 56.4 88.7637 56.4ZM92.7905 50.795C91.4249 50.795 90.3394 51.881 90.3394 53.2472C90.3394 54.6134 91.4249 55.6994 92.7905 55.6994C94.1561 55.6994 95.2415 54.6134 95.2415 53.2472C95.2415 51.881 94.1561 50.795 92.7905 50.795ZM96.9923 45.1901C95.8368 45.1901 94.8914 46.1359 94.8914 47.2919C94.8914 48.448 95.8368 49.3938 96.9923 49.3938C98.1478 49.3938 99.0932 48.448 99.0932 47.2919C99.0932 46.1359 98.1478 45.1901 96.9923 45.1901ZM56.0245 77.4186C54.4838 77.4186 53.2233 78.6798 53.2233 80.2211C53.2233 81.7625 54.4838 83.0236 56.0245 83.0236C57.5652 83.0236 58.8257 81.7625 58.8257 80.2211C58.8257 78.6798 57.5652 77.4186 56.0245 77.4186ZM62.1522 81.6224C60.7165 81.6224 59.526 82.8134 59.526 84.2497C59.526 85.686 60.7165 86.877 62.1522 86.877C63.5878 86.877 64.7783 85.686 64.7783 84.2497C64.7783 82.8134 63.5878 81.6224 62.1522 81.6224ZM67.7546 86.1764C66.494 86.1764 65.4786 87.1923 65.4786 88.4534C65.4786 89.7145 66.494 90.7304 67.7546 90.7304C69.0151 90.7304 70.0306 89.7145 70.0306 88.4534C70.0306 87.1923 69.0151 86.1764 67.7546 86.1764ZM73.7072 90.7304C72.6567 90.7304 71.7814 91.6062 71.7814 92.6571C71.7814 93.7081 72.6567 94.5839 73.7072 94.5839C74.7576 94.5839 75.633 93.7081 75.633 92.6571C75.633 91.6062 74.7576 90.7304 73.7072 90.7304ZM79.6598 95.2845C78.7844 95.2845 78.0841 95.9851 78.0841 96.8609C78.0841 97.7366 78.7844 98.4373 79.6598 98.4373C80.5351 98.4373 81.2355 97.7366 81.2355 96.8609C81.2355 95.9851 80.5351 95.2845 79.6598 95.2845ZM83.8616 88.9789C82.8111 88.9789 81.9358 89.8547 81.9358 90.9056C81.9358 91.9565 82.8111 92.8323 83.8616 92.8323C84.9121 92.8323 85.7874 91.9565 85.7874 90.9056C85.7874 89.8547 84.9121 88.9789 83.8616 88.9789ZM88.0634 83.0236C87.013 83.0236 86.1376 83.8994 86.1376 84.9503C86.1376 86.0012 87.013 86.877 88.0634 86.877C89.1139 86.877 89.9893 86.0012 89.9893 84.9503C89.9893 83.8994 89.1139 83.0236 88.0634 83.0236ZM92.2652 77.0683C91.2148 77.0683 90.3394 77.9441 90.3394 78.995C90.3394 80.046 91.2148 80.9217 92.2652 80.9217C93.3157 80.9217 94.1911 80.046 94.1911 78.995C94.1911 77.9441 93.3157 77.0683 92.2652 77.0683ZM96.1169 71.113C95.0665 71.113 94.1911 71.9888 94.1911 73.0397C94.1911 74.0907 95.0665 74.9665 96.1169 74.9665C97.1674 74.9665 98.0427 74.0907 98.0427 73.0397C98.0427 71.9888 97.1674 71.113 96.1169 71.113ZM100.494 65.5081C99.5134 65.5081 98.7431 66.2788 98.7431 67.2596C98.7431 68.2405 99.5134 69.0112 100.494 69.0112C101.474 69.0112 102.245 68.2405 102.245 67.2596C102.245 66.2788 101.474 65.5081 100.494 65.5081ZM104.521 59.9031C103.645 59.9031 102.945 60.6037 102.945 61.4795C102.945 62.3553 103.645 63.0559 104.521 63.0559C105.396 63.0559 106.096 62.3553 106.096 61.4795C106.096 60.6037 105.396 59.9031 104.521 59.9031ZM46.0452 79.1702C44.6095 79.1702 43.419 80.3612 43.419 81.7975C43.419 83.2338 44.6095 84.4248 46.0452 84.4248C47.4808 84.4248 48.6713 83.2338 48.6713 81.7975C48.6713 80.3612 47.4808 79.1702 46.0452 79.1702ZM51.9978 83.3739C50.5621 83.3739 49.3716 84.565 49.3716 86.0012C49.3716 87.4375 50.5621 88.6286 51.9978 88.6286C53.4334 88.6286 54.6239 87.4375 54.6239 86.0012C54.6239 84.565 53.4334 83.3739 51.9978 83.3739ZM57.9503 87.9279C56.6898 87.9279 55.6744 88.9439 55.6744 90.205C55.6744 91.4661 56.6898 92.482 57.9503 92.482C59.2109 92.482 60.2263 91.4661 60.2263 90.205C60.2263 88.9439 59.2109 87.9279 57.9503 87.9279ZM63.5528 92.1317C62.2922 92.1317 61.2768 93.1476 61.2768 94.4087C61.2768 95.6698 62.2922 96.6857 63.5528 96.6857C64.8133 96.6857 65.8288 95.6698 65.8288 94.4087C65.8288 93.1476 64.8133 92.1317 63.5528 92.1317ZM69.6804 96.6857C68.7 96.6857 67.9297 97.4564 67.9297 98.4373C67.9297 99.4181 68.7 100.189 69.6804 100.189C70.6609 100.189 71.4312 99.4181 71.4312 98.4373C71.4312 97.4564 70.6609 96.6857 69.6804 96.6857ZM63.3777 29.7764C61.837 29.7764 60.5765 31.0375 60.5765 32.5789C60.5765 34.1203 61.837 35.3814 63.3777 35.3814C64.9184 35.3814 66.1789 34.1203 66.1789 32.5789C66.1789 31.0375 64.9184 29.7764 63.3777 29.7764ZM69.3303 33.6298C67.7896 33.6298 66.5291 34.8909 66.5291 36.4323C66.5291 37.9737 67.7896 39.2348 69.3303 39.2348C70.8709 39.2348 72.1315 37.9737 72.1315 36.4323C72.1315 34.8909 70.8709 33.6298 69.3303 33.6298ZM75.2829 37.8335C73.7422 37.8335 72.4816 39.0947 72.4816 40.636C72.4816 42.1774 73.7422 43.4385 75.2829 43.4385C76.8235 43.4385 78.0841 42.1774 78.0841 40.636C78.0841 39.0947 76.8235 37.8335 75.2829 37.8335ZM80.8853 42.0373C79.3446 42.0373 78.0841 43.2984 78.0841 44.8398C78.0841 46.3811 79.3446 47.6422 80.8853 47.6422C82.426 47.6422 83.6865 46.3811 83.6865 44.8398C83.6865 43.2984 82.426 42.0373 80.8853 42.0373ZM30.1133 77.0683C28.7477 77.0683 27.6622 78.1543 27.6622 79.5205C27.6622 80.8867 28.7477 81.9727 30.1133 81.9727C31.4789 81.9727 32.5643 80.8867 32.5643 79.5205C32.5643 78.1543 31.4789 77.0683 30.1133 77.0683ZM24.3357 72.8646C23.0752 72.8646 22.0598 73.8805 22.0598 75.1416C22.0598 76.4027 23.0752 77.4186 24.3357 77.4186C25.5963 77.4186 26.6117 76.4027 26.6117 75.1416C26.6117 73.8805 25.5963 72.8646 24.3357 72.8646ZM18.2081 69.0112C17.0526 69.0112 16.1072 69.957 16.1072 71.113C16.1072 72.2691 17.0526 73.2149 18.2081 73.2149C19.3636 73.2149 20.309 72.2691 20.309 71.113C20.309 69.957 19.3636 69.0112 18.2081 69.0112ZM36.0658 81.272C34.7002 81.272 33.6148 82.358 33.6148 83.7242C33.6148 85.0904 34.7002 86.1764 36.0658 86.1764C37.4314 86.1764 38.5169 85.0904 38.5169 83.7242C38.5169 82.358 37.4314 81.272 36.0658 81.272ZM41.8433 85.4758C40.5828 85.4758 39.5674 86.4917 39.5674 87.7528C39.5674 89.0139 40.5828 90.0298 41.8433 90.0298C43.1039 90.0298 44.1193 89.0139 44.1193 87.7528C44.1193 86.4917 43.1039 85.4758 41.8433 85.4758ZM47.7959 89.6795C46.5354 89.6795 45.5199 90.6954 45.5199 91.9565C45.5199 93.2176 46.5354 94.2335 47.7959 94.2335C49.0565 94.2335 50.0719 93.2176 50.0719 91.9565C50.0719 90.6954 49.0565 89.6795 47.7959 89.6795ZM53.7485 94.2335C52.6981 94.2335 51.8227 95.1093 51.8227 96.1602C51.8227 97.2112 52.6981 98.087 53.7485 98.087C54.799 98.087 55.6744 97.2112 55.6744 96.1602C55.6744 95.1093 54.799 94.2335 53.7485 94.2335ZM59.526 98.4373C58.5456 98.4373 57.7753 99.208 57.7753 100.189C57.7753 101.17 58.5456 101.94 59.526 101.94C60.5065 101.94 61.2768 101.17 61.2768 100.189C61.2768 99.208 60.5065 98.4373 59.526 98.4373ZM65.4786 102.991C64.7083 102.991 64.078 103.622 64.078 104.393C64.078 105.163 64.7083 105.794 65.4786 105.794C66.2489 105.794 66.8792 105.163 66.8792 104.393C66.8792 103.622 66.2489 102.991 65.4786 102.991ZM75.4579 101.59C74.7927 101.59 74.2324 102.151 74.2324 102.816C74.2324 103.482 74.7927 104.042 75.4579 104.042C76.1232 104.042 76.6835 103.482 76.6835 102.816C76.6835 102.151 76.1232 101.59 75.4579 101.59ZM67.5795 23.8211C66.2139 23.8211 65.1285 24.9071 65.1285 26.2733C65.1285 27.6395 66.2139 28.7255 67.5795 28.7255C68.9451 28.7255 70.0306 27.6395 70.0306 26.2733C70.0306 24.9071 68.9451 23.8211 67.5795 23.8211ZM61.6269 19.9677C60.2613 19.9677 59.1759 21.0537 59.1759 22.4199C59.1759 23.7861 60.2613 24.872 61.6269 24.872C62.9925 24.872 64.078 23.7861 64.078 22.4199C64.078 21.0537 62.9925 19.9677 61.6269 19.9677ZM51.4725 21.7193C50.1069 21.7193 49.0215 22.8052 49.0215 24.1714C49.0215 25.5376 50.1069 26.6236 51.4725 26.6236C52.8381 26.6236 53.9236 25.5376 53.9236 24.1714C53.9236 22.8052 52.8381 21.7193 51.4725 21.7193ZM55.6744 15.4137C54.3088 15.4137 53.2233 16.4996 53.2233 17.8658C53.2233 19.2321 54.3088 20.318 55.6744 20.318C57.0399 20.318 58.1254 19.2321 58.1254 17.8658C58.1254 16.4996 57.0399 15.4137 55.6744 15.4137ZM73.357 28.0248C71.9214 28.0248 70.7309 29.2159 70.7309 30.6522C70.7309 32.0884 71.9214 33.2795 73.357 33.2795C74.7927 33.2795 75.9832 32.0884 75.9832 30.6522C75.9832 29.2159 74.7927 28.0248 73.357 28.0248ZM79.3096 32.2286C77.874 32.2286 76.6835 33.4196 76.6835 34.8559C76.6835 36.2922 77.874 37.4832 79.3096 37.4832C80.7452 37.4832 81.9358 36.2922 81.9358 34.8559C81.9358 33.4196 80.7452 32.2286 79.3096 32.2286ZM85.0871 36.4323C83.7215 36.4323 82.6361 37.5183 82.6361 38.8845C82.6361 40.2507 83.7215 41.3366 85.0871 41.3366C86.4527 41.3366 87.5382 40.2507 87.5382 38.8845C87.5382 37.5183 86.4527 36.4323 85.0871 36.4323ZM91.0397 40.636C89.6741 40.636 88.5886 41.722 88.5886 43.0882C88.5886 44.4544 89.6741 45.5404 91.0397 45.5404C92.4053 45.5404 93.4908 44.4544 93.4908 43.0882C93.4908 41.722 92.4053 40.636 91.0397 40.636ZM71.6063 18.2161C70.3457 18.2161 69.3303 19.232 69.3303 20.4932C69.3303 21.7543 70.3457 22.7702 71.6063 22.7702C72.8668 22.7702 73.8823 21.7543 73.8823 20.4932C73.8823 19.232 72.8668 18.2161 71.6063 18.2161ZM77.5589 22.4199C76.2983 22.4199 75.2829 23.4358 75.2829 24.6969C75.2829 25.958 76.2983 26.9739 77.5589 26.9739C78.8194 26.9739 79.8348 25.958 79.8348 24.6969C79.8348 23.4358 78.8194 22.4199 77.5589 22.4199ZM83.5114 26.6236C82.2509 26.6236 81.2355 27.6395 81.2355 28.9006C81.2355 30.1617 82.2509 31.1776 83.5114 31.1776C84.772 31.1776 85.7874 30.1617 85.7874 28.9006C85.7874 27.6395 84.772 26.6236 83.5114 26.6236ZM89.464 30.477C88.2035 30.477 87.188 31.4929 87.188 32.754C87.188 34.0152 88.2035 35.0311 89.464 35.0311C90.7246 35.0311 91.74 34.0152 91.74 32.754C91.74 31.4929 90.7246 30.477 89.464 30.477ZM26.0865 83.3739C25.0361 83.3739 24.1607 84.2497 24.1607 85.3006C24.1607 86.3516 25.0361 87.2273 26.0865 87.2273C27.137 87.2273 28.0123 86.3516 28.0123 85.3006C28.0123 84.2497 27.137 83.3739 26.0865 83.3739ZM43.5941 95.9851C42.5437 95.9851 41.6683 96.8609 41.6683 97.9118C41.6683 98.9627 42.5437 99.8385 43.5941 99.8385C44.6446 99.8385 45.5199 98.9627 45.5199 97.9118C45.5199 96.8609 44.6446 95.9851 43.5941 95.9851ZM31.6889 87.5776C30.6385 87.5776 29.7631 88.4534 29.7631 89.5043C29.7631 90.5553 30.6385 91.4311 31.6889 91.4311C32.7394 91.4311 33.6148 90.5553 33.6148 89.5043C33.6148 88.4534 32.7394 87.5776 31.6889 87.5776ZM37.6415 91.7814C36.5911 91.7814 35.7157 92.6571 35.7157 93.7081C35.7157 94.759 36.5911 95.6348 37.6415 95.6348C38.692 95.6348 39.5674 94.759 39.5674 93.7081C39.5674 92.6571 38.692 91.7814 37.6415 91.7814ZM19.9588 79.5205C18.9784 79.5205 18.2081 80.2912 18.2081 81.272C18.2081 82.2529 18.9784 83.0236 19.9588 83.0236C20.9393 83.0236 21.7096 82.2529 21.7096 81.272C21.7096 80.2912 20.9393 79.5205 19.9588 79.5205ZM14.1813 75.3168C13.3059 75.3168 12.6056 76.0174 12.6056 76.8932C12.6056 77.7689 13.3059 78.4696 14.1813 78.4696C15.0567 78.4696 15.757 77.7689 15.757 76.8932C15.757 76.0174 15.0567 75.3168 14.1813 75.3168ZM12.4305 65.5081C11.5552 65.5081 10.8549 66.2087 10.8549 67.0845C10.8549 67.9602 11.5552 68.6609 12.4305 68.6609C13.3059 68.6609 14.0062 67.9602 14.0062 67.0845C14.0062 66.2087 13.3059 65.5081 12.4305 65.5081ZM10.6798 55.3491C9.8044 55.3491 9.10411 56.0497 9.10411 56.9255C9.10411 57.8012 9.8044 58.5019 10.6798 58.5019C11.5552 58.5019 12.2555 57.8012 12.2555 56.9255C12.2555 56.0497 11.5552 55.3491 10.6798 55.3491ZM8.75395 45.5404C7.98362 45.5404 7.35335 46.1709 7.35335 46.9416C7.35335 47.7123 7.98362 48.3429 8.75395 48.3429C9.52429 48.3429 10.1546 47.7123 10.1546 46.9416C10.1546 46.1709 9.52429 45.5404 8.75395 45.5404ZM12.9558 39.2348C11.9754 39.2348 11.205 40.0055 11.205 40.9863C11.205 41.9672 11.9754 42.7379 12.9558 42.7379C13.9362 42.7379 14.7066 41.9672 14.7066 40.9863C14.7066 40.0055 13.9362 39.2348 12.9558 39.2348ZM17.1576 33.2795C16.1772 33.2795 15.4069 34.0502 15.4069 35.0311C15.4069 36.0119 16.1772 36.7826 17.1576 36.7826C18.1381 36.7826 18.9084 36.0119 18.9084 35.0311C18.9084 34.0502 18.1381 33.2795 17.1576 33.2795ZM21.3595 27.6745C20.379 27.6745 19.6087 28.4452 19.6087 29.4261C19.6087 30.407 20.379 31.1776 21.3595 31.1776C22.3399 31.1776 23.1102 30.407 23.1102 29.4261C23.1102 28.4452 22.3399 27.6745 21.3595 27.6745ZM25.5613 21.3689C24.5809 21.3689 23.8105 22.1396 23.8105 23.1205C23.8105 24.1014 24.5809 24.872 25.5613 24.872C26.5417 24.872 27.312 24.1014 27.312 23.1205C27.312 22.1396 26.5417 21.3689 25.5613 21.3689ZM29.588 15.764C28.7126 15.764 28.0123 16.4646 28.0123 17.3404C28.0123 18.2161 28.7126 18.9168 29.588 18.9168C30.4634 18.9168 31.1637 18.2161 31.1637 17.3404C31.1637 16.4646 30.4634 15.764 29.588 15.764ZM16.6324 59.2025C15.582 59.2025 14.7066 60.0783 14.7066 61.1292C14.7066 62.1801 15.582 63.0559 16.6324 63.0559C17.6829 63.0559 18.5582 62.1801 18.5582 61.1292C18.5582 60.0783 17.6829 59.2025 16.6324 59.2025ZM49.7218 100.189C48.7413 100.189 47.971 100.96 47.971 101.94C47.971 102.921 48.7413 103.692 49.7218 103.692C50.7022 103.692 51.4725 102.921 51.4725 101.94C51.4725 100.96 50.7022 100.189 49.7218 100.189ZM21.8847 90.0298C21.2194 90.0298 20.6591 90.5903 20.6591 91.2559C20.6591 91.9215 21.2194 92.482 21.8847 92.482C22.55 92.482 23.1102 91.9215 23.1102 91.2559C23.1102 90.5903 22.55 90.0298 21.8847 90.0298ZM98.0427 81.9727C97.2724 81.9727 96.6421 82.6032 96.6421 83.3739C96.6421 84.1446 97.2724 84.7752 98.0427 84.7752C98.8131 84.7752 99.4434 84.1446 99.4434 83.3739C99.4434 82.6032 98.8131 81.9727 98.0427 81.9727ZM94.016 87.9279C93.3507 87.9279 92.7905 88.4884 92.7905 89.154C92.7905 89.8196 93.3507 90.3801 94.016 90.3801C94.6813 90.3801 95.2415 89.8196 95.2415 89.154C95.2415 88.4884 94.6813 87.9279 94.016 87.9279ZM89.8142 93.8832C89.1489 93.8832 88.5886 94.4437 88.5886 95.1093C88.5886 95.7749 89.1489 96.3354 89.8142 96.3354C90.4795 96.3354 91.0397 95.7749 91.0397 95.1093C91.0397 94.4437 90.4795 93.8832 89.8142 93.8832ZM102.069 76.0174C101.404 76.0174 100.844 76.5779 100.844 77.2435C100.844 77.9091 101.404 78.4696 102.069 78.4696C102.735 78.4696 103.295 77.9091 103.295 77.2435C103.295 76.5779 102.735 76.0174 102.069 76.0174ZM106.446 70.4124C105.851 70.4124 105.396 70.8678 105.396 71.4634C105.396 72.0589 105.851 72.5143 106.446 72.5143C107.042 72.5143 107.497 72.0589 107.497 71.4634C107.497 70.8678 107.042 70.4124 106.446 70.4124ZM108.897 54.6484C108.302 54.6484 107.847 55.1039 107.847 55.6994C107.847 56.2949 108.302 56.7503 108.897 56.7503C109.493 56.7503 109.948 56.2949 109.948 55.6994C109.948 55.1039 109.493 54.6484 108.897 54.6484ZM110.473 64.8075C109.983 64.8075 109.598 65.1928 109.598 65.6832C109.598 66.1737 109.983 66.559 110.473 66.559C110.963 66.559 111.349 66.1737 111.349 65.6832C111.349 65.1928 110.963 64.8075 110.473 64.8075ZM39.3923 102.641C38.727 102.641 38.1667 103.201 38.1667 103.867C38.1667 104.533 38.727 105.093 39.3923 105.093C40.0576 105.093 40.6178 104.533 40.6178 103.867C40.6178 103.201 40.0576 102.641 39.3923 102.641ZM55.4993 105.093C54.834 105.093 54.2737 105.654 54.2737 106.319C54.2737 106.985 54.834 107.545 55.4993 107.545C56.1646 107.545 56.7248 106.985 56.7248 106.319C56.7248 105.654 56.1646 105.093 55.4993 105.093ZM33.6148 98.087C32.8444 98.087 32.2142 98.7175 32.2142 99.4882C32.2142 100.259 32.8444 100.889 33.6148 100.889C34.3851 100.889 35.0154 100.259 35.0154 99.4882C35.0154 98.7175 34.3851 98.087 33.6148 98.087ZM27.6622 93.8832C26.8919 93.8832 26.2616 94.5138 26.2616 95.2845C26.2616 96.0552 26.8919 96.6857 27.6622 96.6857C28.4325 96.6857 29.0628 96.0552 29.0628 95.2845C29.0628 94.5138 28.4325 93.8832 27.6622 93.8832ZM17.6829 96.6857C17.4027 96.6857 17.1576 96.9309 17.1576 97.2112C17.1576 97.4914 17.4027 97.7366 17.6829 97.7366C17.963 97.7366 18.2081 97.4914 18.2081 97.2112C18.2081 96.9309 17.963 96.6857 17.6829 96.6857ZM112.924 49.0435C112.644 49.0435 112.399 49.2887 112.399 49.5689C112.399 49.8492 112.644 50.0944 112.924 50.0944C113.204 50.0944 113.449 49.8492 113.449 49.5689C113.449 49.2887 113.204 49.0435 112.924 49.0435ZM114.675 59.2025C114.395 59.2025 114.15 59.4477 114.15 59.728C114.15 60.0082 114.395 60.2534 114.675 60.2534C114.955 60.2534 115.2 60.0082 115.2 59.728C115.2 59.4477 114.955 59.2025 114.675 59.2025ZM108.022 80.9217C107.742 80.9217 107.497 81.167 107.497 81.4472C107.497 81.7275 107.742 81.9727 108.022 81.9727C108.302 81.9727 108.547 81.7275 108.547 81.4472C108.547 81.167 108.302 80.9217 108.022 80.9217ZM103.82 86.877C103.54 86.877 103.295 87.1222 103.295 87.4025C103.295 87.6827 103.54 87.9279 103.82 87.9279C104.1 87.9279 104.345 87.6827 104.345 87.4025C104.345 87.1222 104.1 86.877 103.82 86.877ZM99.6184 92.8323C99.3383 92.8323 99.0932 93.0775 99.0932 93.3578C99.0932 93.638 99.3383 93.8832 99.6184 93.8832C99.8986 93.8832 100.144 93.638 100.144 93.3578C100.144 93.0775 99.8986 92.8323 99.6184 92.8323ZM4.37703 78.4696C4.09691 78.4696 3.85179 78.7148 3.85179 78.995C3.85179 79.2753 4.09691 79.5205 4.37703 79.5205C4.65715 79.5205 4.90227 79.2753 4.90227 78.995C4.90227 78.7148 4.65715 78.4696 4.37703 78.4696ZM68.1047 0C67.8246 0 67.5795 0.245217 67.5795 0.525466C67.5795 0.805714 67.8246 1.05093 68.1047 1.05093C68.3849 1.05093 68.63 0.805714 68.63 0.525466C68.63 0.245217 68.3849 0 68.1047 0ZM2.27611 68.3106C1.99599 68.3106 1.75087 68.5558 1.75087 68.836C1.75087 69.1163 1.99599 69.3615 2.27611 69.3615C2.55623 69.3615 2.80135 69.1163 2.80135 68.836C2.80135 68.5558 2.55623 68.3106 2.27611 68.3106ZM0.525352 58.1516C0.245231 58.1516 0.000114441 58.3968 0.000114441 58.677C0.000114441 58.9573 0.245231 59.2025 0.525352 59.2025C0.805474 59.2025 1.05059 58.9573 1.05059 58.677C1.05059 58.3968 0.805474 58.1516 0.525352 58.1516ZM51.2975 111.749C51.0173 111.749 50.7722 111.994 50.7722 112.275C50.7722 112.555 51.0173 112.8 51.2975 112.8C51.5776 112.8 51.8227 112.555 51.8227 112.275C51.8227 111.994 51.5776 111.749 51.2975 111.749ZM23.4604 100.539C23.0752 100.539 22.7601 100.854 22.7601 101.24C22.7601 101.625 23.0752 101.94 23.4604 101.94C23.8455 101.94 24.1607 101.625 24.1607 101.24C24.1607 100.854 23.8455 100.539 23.4604 100.539ZM3.15147 42.0373C2.76631 42.0373 2.45119 42.3525 2.45119 42.7379C2.45119 43.1232 2.76631 43.4385 3.15147 43.4385C3.53664 43.4385 3.85179 43.1232 3.85179 42.7379C3.85179 42.3525 3.53664 42.0373 3.15147 42.0373ZM45.3449 106.845C44.8547 106.845 44.4695 107.23 44.4695 107.72C44.4695 108.211 44.8547 108.596 45.3449 108.596C45.8351 108.596 46.2202 108.211 46.2202 107.72C46.2202 107.23 45.8351 106.845 45.3449 106.845ZM71.4312 107.896C71.046 107.896 70.7309 108.211 70.7309 108.596C70.7309 108.982 71.046 109.297 71.4312 109.297C71.8164 109.297 72.1315 108.982 72.1315 108.596C72.1315 108.211 71.8164 107.896 71.4312 107.896ZM85.6124 100.189C85.1221 100.189 84.737 100.574 84.737 101.065C84.737 101.555 85.1221 101.94 85.6124 101.94C86.1026 101.94 86.4877 101.555 86.4877 101.065C86.4877 100.574 86.1026 100.189 85.6124 100.189ZM81.4105 106.494C81.1304 106.494 80.8853 106.74 80.8853 107.02C80.8853 107.3 81.1304 107.545 81.4105 107.545C81.6907 107.545 81.9358 107.3 81.9358 107.02C81.9358 106.74 81.6907 106.494 81.4105 106.494ZM61.4519 109.297C60.9616 109.297 60.5765 109.682 60.5765 110.173C60.5765 110.663 60.9616 111.048 61.4519 111.048C61.9421 111.048 62.3272 110.663 62.3272 110.173C62.3272 109.682 61.9421 109.297 61.4519 109.297ZM15.9321 85.8261C15.2668 85.8261 14.7066 86.3866 14.7066 87.0522C14.7066 87.7178 15.2668 88.2783 15.9321 88.2783C16.5974 88.2783 17.1576 87.7178 17.1576 87.0522C17.1576 86.3866 16.5974 85.8261 15.9321 85.8261ZM9.97948 81.9727C9.48926 81.9727 9.10411 82.358 9.10411 82.8484C9.10411 83.3389 9.48926 83.7242 9.97948 83.7242C10.4697 83.7242 10.8549 83.3389 10.8549 82.8484C10.8549 82.358 10.4697 81.9727 9.97948 81.9727ZM7.17827 36.082C6.68806 36.082 6.30287 36.4673 6.30287 36.9578C6.30287 37.4482 6.68806 37.8335 7.17827 37.8335C7.66848 37.8335 8.05363 37.4482 8.05363 36.9578C8.05363 36.4673 7.66848 36.082 7.17827 36.082ZM11.3801 29.7764C10.7148 29.7764 10.1546 30.3369 10.1546 31.0025C10.1546 31.6681 10.7148 32.2286 11.3801 32.2286C12.0454 32.2286 12.6056 31.6681 12.6056 31.0025C12.6056 30.3369 12.0454 29.7764 11.3801 29.7764ZM15.582 23.8211C14.9167 23.8211 14.3564 24.3816 14.3564 25.0472C14.3564 25.7128 14.9167 26.2733 15.582 26.2733C16.2472 26.2733 16.8075 25.7128 16.8075 25.0472C16.8075 24.3816 16.2472 23.8211 15.582 23.8211ZM19.6087 18.2161C19.0134 18.2161 18.5582 18.6716 18.5582 19.2671C18.5582 19.8626 19.0134 20.318 19.6087 20.318C20.204 20.318 20.6591 19.8626 20.6591 19.2671C20.6591 18.6716 20.204 18.2161 19.6087 18.2161ZM23.6354 12.2609C23.1452 12.2609 22.7601 12.6462 22.7601 13.1366C22.7601 13.6271 23.1452 14.0124 23.6354 14.0124C24.1257 14.0124 24.5108 13.6271 24.5108 13.1366C24.5108 12.6462 24.1257 12.2609 23.6354 12.2609ZM37.9917 4.90435C37.5015 4.90435 37.1163 5.28969 37.1163 5.78012C37.1163 6.27056 37.5015 6.6559 37.9917 6.6559C38.4819 6.6559 38.8671 6.27056 38.8671 5.78012C38.8671 5.28969 38.4819 4.90435 37.9917 4.90435ZM27.8373 7.00621C27.5571 7.00621 27.312 7.25143 27.312 7.53168C27.312 7.81193 27.5571 8.05714 27.8373 8.05714C28.1174 8.05714 28.3625 7.81193 28.3625 7.53168C28.3625 7.25143 28.1174 7.00621 27.8373 7.00621ZM8.40379 71.8137C7.80853 71.8137 7.35335 72.2691 7.35335 72.8646C7.35335 73.4601 7.80853 73.9155 8.40379 73.9155C8.99905 73.9155 9.45427 73.4601 9.45427 72.8646C9.45427 72.2691 8.99905 71.8137 8.40379 71.8137ZM6.47795 61.6547C5.81266 61.6547 5.2524 62.2152 5.2524 62.8807C5.2524 63.5463 5.81266 64.1068 6.47795 64.1068C7.14324 64.1068 7.70348 63.5463 7.70348 62.8807C7.70348 62.2152 7.14324 61.6547 6.47795 61.6547ZM4.90227 51.846C4.30701 51.846 3.85179 52.3014 3.85179 52.8969C3.85179 53.4924 4.30701 53.9478 4.90227 53.9478C5.49753 53.9478 5.95271 53.4924 5.95271 52.8969C5.95271 52.3014 5.49753 51.846 4.90227 51.846ZM29.4129 104.743C29.0278 104.743 28.7126 105.058 28.7126 105.443C28.7126 105.829 29.0278 106.144 29.4129 106.144C29.7981 106.144 30.1133 105.829 30.1133 105.443C30.1133 105.058 29.7981 104.743 29.4129 104.743ZM75.8081 12.9615C74.9327 12.9615 74.2324 13.6621 74.2324 14.5379C74.2324 15.4137 74.9327 16.1143 75.8081 16.1143C76.6835 16.1143 77.3838 15.4137 77.3838 14.5379C77.3838 13.6621 76.6835 12.9615 75.8081 12.9615ZM69.8555 8.75776C68.9801 8.75776 68.2798 9.45839 68.2798 10.3342C68.2798 11.2099 68.9801 11.9106 69.8555 11.9106C70.7309 11.9106 71.4312 11.2099 71.4312 10.3342C71.4312 9.45839 70.7309 8.75776 69.8555 8.75776ZM65.6537 14.3627C64.6032 14.3627 63.7278 15.2385 63.7278 16.2894C63.7278 17.3404 64.6032 18.2161 65.6537 18.2161C66.7041 18.2161 67.5795 17.3404 67.5795 16.2894C67.5795 15.2385 66.7041 14.3627 65.6537 14.3627ZM59.8762 10.5093C58.8957 10.5093 58.1254 11.28 58.1254 12.2609C58.1254 13.2417 58.8957 14.0124 59.8762 14.0124C60.8566 14.0124 61.6269 13.2417 61.6269 12.2609C61.6269 11.28 60.8566 10.5093 59.8762 10.5093ZM53.9236 6.6559C53.1533 6.6559 52.523 7.28646 52.523 8.05714C52.523 8.82783 53.1533 9.45839 53.9236 9.45839C54.6939 9.45839 55.3242 8.82783 55.3242 8.05714C55.3242 7.28646 54.6939 6.6559 53.9236 6.6559ZM43.7692 8.40745C42.9988 8.40745 42.3686 9.03801 42.3686 9.8087C42.3686 10.5794 42.9988 11.2099 43.7692 11.2099C44.5395 11.2099 45.1698 10.5794 45.1698 9.8087C45.1698 9.03801 44.5395 8.40745 43.7692 8.40745ZM39.5674 14.0124C38.5869 14.0124 37.8166 14.7831 37.8166 15.764C37.8166 16.7448 38.5869 17.5155 39.5674 17.5155C40.5478 17.5155 41.3181 16.7448 41.3181 15.764C41.3181 14.7831 40.5478 14.0124 39.5674 14.0124ZM33.7898 10.159C33.1246 10.159 32.5643 10.7195 32.5643 11.3851C32.5643 12.0507 33.1246 12.6112 33.7898 12.6112C34.4551 12.6112 35.0154 12.0507 35.0154 11.3851C35.0154 10.7195 34.4551 10.159 33.7898 10.159ZM47.971 2.80248C47.3757 2.80248 46.9205 3.25789 46.9205 3.85342C46.9205 4.44894 47.3757 4.90435 47.971 4.90435C48.5663 4.90435 49.0215 4.44894 49.0215 3.85342C49.0215 3.25789 48.5663 2.80248 47.971 2.80248ZM63.9029 5.25466C63.2376 5.25466 62.6774 5.81516 62.6774 6.48075C62.6774 7.14634 63.2376 7.70683 63.9029 7.70683C64.5682 7.70683 65.1285 7.14634 65.1285 6.48075C65.1285 5.81516 64.5682 5.25466 63.9029 5.25466ZM58.3005 1.40124C57.8103 1.40124 57.4251 1.78658 57.4251 2.27702C57.4251 2.76745 57.8103 3.1528 58.3005 3.1528C58.7907 3.1528 59.1759 2.76745 59.1759 2.27702C59.1759 1.78658 58.7907 1.40124 58.3005 1.40124ZM74.0573 3.85342C73.5671 3.85342 73.182 4.23876 73.182 4.72919C73.182 5.21963 73.5671 5.60497 74.0573 5.60497C74.5476 5.60497 74.9327 5.21963 74.9327 4.72919C74.9327 4.23876 74.5476 3.85342 74.0573 3.85342ZM79.8348 7.70683C79.2396 7.70683 78.7844 8.16224 78.7844 8.75776C78.7844 9.35329 79.2396 9.8087 79.8348 9.8087C80.4301 9.8087 80.8853 9.35329 80.8853 8.75776C80.8853 8.16224 80.4301 7.70683 79.8348 7.70683ZM85.7874 11.9106C85.1922 11.9106 84.737 12.366 84.737 12.9615C84.737 13.557 85.1922 14.0124 85.7874 14.0124C86.3827 14.0124 86.8379 13.557 86.8379 12.9615C86.8379 12.366 86.3827 11.9106 85.7874 11.9106ZM91.74 16.1143C91.1448 16.1143 90.6896 16.5697 90.6896 17.1652C90.6896 17.7607 91.1448 18.2161 91.74 18.2161C92.3353 18.2161 92.7905 17.7607 92.7905 17.1652C92.7905 16.5697 92.3353 16.1143 91.74 16.1143ZM97.5175 20.318C97.0273 20.318 96.6421 20.7034 96.6421 21.1938C96.6421 21.6842 97.0273 22.0696 97.5175 22.0696C98.0077 22.0696 98.3929 21.6842 98.3929 21.1938C98.3929 20.7034 98.0077 20.318 97.5175 20.318ZM103.645 24.5217C103.26 24.5217 102.945 24.837 102.945 25.2224C102.945 25.6077 103.26 25.923 103.645 25.923C104.03 25.923 104.345 25.6077 104.345 25.2224C104.345 24.837 104.03 24.5217 103.645 24.5217ZM81.7607 17.1652C80.8853 17.1652 80.185 17.8658 80.185 18.7416C80.185 19.6174 80.8853 20.318 81.7607 20.318C82.6361 20.318 83.3364 19.6174 83.3364 18.7416C83.3364 17.8658 82.6361 17.1652 81.7607 17.1652ZM87.7133 21.3689C86.8379 21.3689 86.1376 22.0696 86.1376 22.9453C86.1376 23.8211 86.8379 24.5217 87.7133 24.5217C88.5886 24.5217 89.2889 23.8211 89.2889 22.9453C89.2889 22.0696 88.5886 21.3689 87.7133 21.3689ZM93.6658 25.5727C92.7905 25.5727 92.0902 26.2733 92.0902 27.1491C92.0902 28.0248 92.7905 28.7255 93.6658 28.7255C94.5412 28.7255 95.2415 28.0248 95.2415 27.1491C95.2415 26.2733 94.5412 25.5727 93.6658 25.5727ZM99.4434 29.7764C98.673 29.7764 98.0427 30.407 98.0427 31.1776C98.0427 31.9483 98.673 32.5789 99.4434 32.5789C100.214 32.5789 100.844 31.9483 100.844 31.1776C100.844 30.407 100.214 29.7764 99.4434 29.7764ZM105.396 34.3304C104.801 34.3304 104.345 34.7858 104.345 35.3814C104.345 35.9769 104.801 36.4323 105.396 36.4323C105.991 36.4323 106.446 35.9769 106.446 35.3814C106.446 34.7858 105.991 34.3304 105.396 34.3304ZM111.349 38.8845C110.963 38.8845 110.648 39.1998 110.648 39.5851C110.648 39.9704 110.963 40.2857 111.349 40.2857C111.734 40.2857 112.049 39.9704 112.049 39.5851C112.049 39.1998 111.734 38.8845 111.349 38.8845ZM53.2233 31.1776C51.6826 31.1776 50.4221 32.4388 50.4221 33.9801C50.4221 35.5215 51.6826 36.7826 53.2233 36.7826C54.764 36.7826 56.0245 35.5215 56.0245 33.9801C56.0245 32.4388 54.764 31.1776 53.2233 31.1776ZM47.4458 27.3242C46.0102 27.3242 44.8196 28.5153 44.8196 29.9516C44.8196 31.3878 46.0102 32.5789 47.4458 32.5789C48.8814 32.5789 50.0719 31.3878 50.0719 29.9516C50.0719 28.5153 48.8814 27.3242 47.4458 27.3242ZM57.4251 25.2224C55.8844 25.2224 54.6239 26.4835 54.6239 28.0248C54.6239 29.5662 55.8844 30.8273 57.4251 30.8273C58.9658 30.8273 60.2263 29.5662 60.2263 28.0248C60.2263 26.4835 58.9658 25.2224 57.4251 25.2224Z" fill="white"/>
<path d="M99.6184 41.1615C99.6184 40.2857 100.319 39.5851 101.194 39.5851C102.069 39.5851 102.77 40.2857 102.77 41.1615C102.77 42.0373 102.069 42.7379 101.194 42.7379C100.319 42.7379 99.6184 42.0373 99.6184 41.1615Z" fill="white"/>
<path d="M93.6658 37.1329C93.6658 36.152 94.4362 35.3814 95.4166 35.3814C96.397 35.3814 97.1674 36.152 97.1674 37.1329C97.1674 38.1138 96.397 38.8845 95.4166 38.8845C94.4362 38.8845 93.6658 38.1138 93.6658 37.1329Z" fill="white"/>
</svg>
