<svg width="256" height="256" viewBox="0 0 256 256" fill="none" xmlns="http://www.w3.org/2000/svg">
<g clip-path="url(#clip0_2432_55)">
<path d="M128 256C198.692 256 256 198.692 256 128C256 57.3075 198.692 0 128 0C57.3075 0 0 57.3075 0 128C0 198.692 57.3075 256 128 256Z" fill="#828282"/>
<path d="M129.76 204.09C77.5897 204.22 43.1397 155.08 60.7097 107.66C62.2897 103.4 62.7697 99.4795 61.0097 95.1195C56.6597 84.3595 58.8997 74.7695 67.4097 66.9895C76.0097 59.1295 86.0597 58.4295 96.1397 63.4295C100.25 65.4695 103.79 65.1895 107.62 64.0995C121.07 60.2595 134.51 60.2395 147.93 64.0095C152.94 65.4195 157.22 64.9095 162.24 62.7695C172.03 58.6095 181.83 59.4195 189.98 67.4095C198.32 75.5795 199.9 85.2295 195.46 95.7395C193.76 99.7595 193.6 103.34 195.17 107.26C208.62 140.78 193.7 178.9 161.82 196C151.35 201.62 140.1 204.21 129.77 204.08L129.76 204.09Z" fill="white"/>
<path d="M77.2797 133.16C75.9397 106.9 99.2097 81.9696 127.52 82.0696C155.88 82.1596 178.07 104.09 178.87 132.2C179.55 156.25 159.59 182.92 128.48 183.36C100.54 183.76 77.4097 161.09 77.2797 133.16Z" fill="#828282"/>
</g>
<defs>
<clipPath id="clip0_2432_55">
<rect width="256" height="256" fill="white"/>
</clipPath>
</defs>
</svg>
