<svg width="256" height="256" viewBox="0 0 256 256" fill="none" xmlns="http://www.w3.org/2000/svg">
<g clip-path="url(#clip0_2432_67)">
<path d="M128 256C198.692 256 256 198.692 256 128C256 57.3075 198.692 0 128 0C57.3075 0 0 57.3075 0 128C0 198.692 57.3075 256 128 256Z" fill="#E96C8C"/>
<path d="M197.449 99.7403C197.739 104.99 195.439 109.49 193.059 113.87C188.059 123.08 188.139 132.06 192.689 141.53C202.919 162.83 196.309 174.94 173.099 177.1C161.939 178.14 153.879 182.75 147.689 192.21C135.979 210.11 119.979 209.98 108.129 191.96C102.149 182.87 94.3694 178.23 83.5794 177.17C59.5094 174.81 53.0394 163.18 63.4394 141.25C67.7594 132.13 67.6594 123.55 63.2994 114.46C53.0894 93.1503 59.6794 81.0503 82.8894 78.8903C94.0394 77.8503 102.119 73.2403 108.299 63.7803C119.789 46.2003 136.129 45.8403 147.249 63.2403C154.339 74.3303 163.979 78.3103 176.379 79.2703C190.279 80.3503 197.549 88.0203 197.439 99.7503L197.449 99.7403Z" fill="white"/>
<path d="M174.57 154.66C153.79 156.48 139.12 164.62 128.2 181.56C116.65 164.89 102.2 156.35 82.5004 154.75C89.4904 136.88 91.2504 119.79 81.6504 101.75C101.55 99.42 116.62 91.39 128.05 74.79C139.35 91.09 153.79 99.63 173.49 101.23C166.55 119.11 164.72 136.19 174.57 154.65V154.66Z" fill="#E96C8D"/>
</g>
<defs>
<clipPath id="clip0_2432_67">
<rect width="256" height="256" fill="white"/>
</clipPath>
</defs>
</svg>
