<svg width="68" height="68" viewBox="0 0 68 68" fill="none" xmlns="http://www.w3.org/2000/svg">
<rect width="68" height="68" rx="10" fill="white"/>
<path d="M15.468 35.08C14.768 35.08 14.18 34.842 13.704 34.366C13.2374 33.8807 13.004 33.1853 13.004 32.28C13.004 31.5613 13.1954 30.908 13.578 30.32C13.97 29.7227 14.5254 29.2467 15.244 28.892C15.972 28.5373 16.728 28.36 17.512 28.36L17.792 28.752C17.5587 28.752 17.26 28.7987 16.896 28.892C16.532 28.976 16.1727 29.1067 15.818 29.284C15.4634 29.4613 15.1694 29.6853 14.936 29.956C14.5814 30.3667 14.404 30.7027 14.404 30.964C14.4787 30.8613 14.6467 30.7727 14.908 30.698C15.1694 30.614 15.4494 30.572 15.748 30.572C16.4947 30.572 17.064 30.88 17.456 31.496C17.596 30.8707 17.876 30.3247 18.296 29.858C18.7254 29.3913 19.248 29.0273 19.864 28.766C20.4894 28.4953 21.1614 28.36 21.88 28.36L22.16 28.752C21.9267 28.752 21.628 28.7987 21.264 28.892C20.9 28.976 20.5407 29.1067 20.186 29.284C19.8314 29.4613 19.5374 29.6853 19.304 29.956C18.9494 30.3667 18.772 30.7027 18.772 30.964C18.8467 30.8613 19.0147 30.7727 19.276 30.698C19.5374 30.614 19.8174 30.572 20.116 30.572C20.5267 30.572 20.886 30.67 21.194 30.866C21.502 31.062 21.7447 31.328 21.922 31.664C22.0994 31.9907 22.188 32.3547 22.188 32.756C22.188 33.428 21.9734 33.9833 21.544 34.422C21.124 34.8607 20.5547 35.08 19.836 35.08C19.3507 35.08 18.912 34.9587 18.52 34.716C18.128 34.4733 17.8387 34.1373 17.652 33.708C17.4747 34.1373 17.1994 34.4733 16.826 34.716C16.4527 34.9587 16 35.08 15.468 35.08ZM24.4406 41.1626V28.5298H28.0351V29.9119H26.1707V39.7855H28.0351V41.1626H24.4406ZM30.4426 39.1094C30.141 39.1094 29.8824 39.0033 29.667 38.7912C29.4516 38.5791 29.3455 38.3205 29.3488 38.0156C29.3455 37.7173 29.4516 37.4621 29.667 37.25C29.8824 37.0379 30.141 36.9318 30.4426 36.9318C30.7342 36.9318 30.9878 37.0379 31.2032 37.25C31.422 37.4621 31.533 37.7173 31.5363 38.0156C31.533 38.2178 31.48 38.4018 31.3772 38.5675C31.2778 38.7332 31.1452 38.8658 30.9795 38.9652C30.8171 39.0613 30.6381 39.1094 30.4426 39.1094ZM34.5031 39.1094C34.2015 39.1094 33.943 39.0033 33.7275 38.7912C33.5121 38.5791 33.406 38.3205 33.4094 38.0156C33.406 37.7173 33.5121 37.4621 33.7275 37.25C33.943 37.0379 34.2015 36.9318 34.5031 36.9318C34.7948 36.9318 35.0483 37.0379 35.2638 37.25C35.4825 37.4621 35.5935 37.7173 35.5969 38.0156C35.5935 38.2178 35.5405 38.4018 35.4378 38.5675C35.3383 38.7332 35.2058 38.8658 35.04 38.9652C34.8776 39.0613 34.6987 39.1094 34.5031 39.1094ZM38.5637 39.1094C38.262 39.1094 38.0035 39.0033 37.7881 38.7912C37.5727 38.5791 37.4666 38.3205 37.4699 38.0156C37.4666 37.7173 37.5727 37.4621 37.7881 37.25C38.0035 37.0379 38.262 36.9318 38.5637 36.9318C38.8553 36.9318 39.1089 37.0379 39.3243 37.25C39.5431 37.4621 39.6541 37.7173 39.6574 38.0156C39.6541 38.2178 39.6011 38.4018 39.4983 38.5675C39.3989 38.7332 39.2663 38.8658 39.1006 38.9652C38.9382 39.0613 38.7592 39.1094 38.5637 39.1094ZM44.5581 28.5298V41.1626H40.9637V39.7855H42.828V29.9119H40.9637V28.5298H44.5581ZM47.1226 35.08L46.8426 34.688C47.0853 34.688 47.3839 34.646 47.7386 34.562C48.0933 34.4687 48.4479 34.3333 48.8026 34.156C49.1666 33.9693 49.4653 33.7453 49.6986 33.484C50.0533 33.1013 50.2306 32.7653 50.2306 32.476C50.1373 32.5787 49.9599 32.672 49.6986 32.756C49.4466 32.8307 49.1759 32.868 48.8866 32.868C48.4853 32.868 48.1259 32.77 47.8086 32.574C47.5006 32.378 47.2579 32.1167 47.0806 31.79C46.9033 31.454 46.8146 31.0853 46.8146 30.684C46.8146 30.0027 47.0293 29.4473 47.4586 29.018C47.8879 28.5793 48.4573 28.36 49.1666 28.36C49.6613 28.36 50.0999 28.4813 50.4826 28.724C50.8746 28.9667 51.1639 29.3027 51.3506 29.732C51.5279 29.3027 51.8033 28.9667 52.1766 28.724C52.5499 28.4813 53.0026 28.36 53.5346 28.36C54.0013 28.36 54.4213 28.472 54.7946 28.696C55.1679 28.9107 55.4619 29.228 55.6766 29.648C55.8913 30.0587 55.9986 30.5627 55.9986 31.16C55.9986 31.636 55.8959 32.1027 55.6906 32.56C55.4853 33.008 55.2006 33.414 54.8366 33.778C54.4819 34.1327 54.0666 34.4127 53.5906 34.618C52.8813 34.926 52.1813 35.08 51.4906 35.08L51.2106 34.688C51.4533 34.688 51.7519 34.646 52.1066 34.562C52.4613 34.4687 52.8159 34.3333 53.1706 34.156C53.5346 33.9693 53.8333 33.7453 54.0666 33.484C54.4213 33.1013 54.5986 32.7653 54.5986 32.476C54.5053 32.5787 54.3279 32.672 54.0666 32.756C53.8146 32.8307 53.5439 32.868 53.2546 32.868C52.5079 32.868 51.9386 32.56 51.5466 31.944C51.3973 32.56 51.0939 33.1153 50.6366 33.61C50.1793 34.1047 49.6286 34.4733 48.9846 34.716C48.3313 34.9587 47.7106 35.08 47.1226 35.08Z" fill="black"/>
</svg>
